<svg xmlns="http://www.w3.org/2000/svg" width="100%" height="100%" viewBox="0 0 1200 1000">
    <!-- Background -->
    <rect width="100%" height="100%" fill="#0f0f0f"/>
    
    <!-- Gradient Definitions -->
    <defs>
        <linearGradient id="gradient1" x1="0%" y1="0%" x2="100%" y2="100%">
            <stop offset="0%" style="stop-color:#00c6ff;stop-opacity:1" />
            <stop offset="100%" style="stop-color:#0072ff;stop-opacity:1" />
        </linearGradient>
        <linearGradient id="glowGradient" x1="0%" y1="0%" x2="100%" y2="100%">
            <stop offset="0%" style="stop-color:#ff007c;stop-opacity:1" />
            <stop offset="100%" style="stop-color:#ff5e3a;stop-opacity:1" />
        </linearGradient>
        <filter id="neonGlow" x="-50%" y="-50%" width="200%" height="200%">
            <feGaussianBlur in="SourceGraphic" stdDeviation="15" result="blur"/>
            <feMerge>
                <feMergeNode in="blur"/>
                <feMergeNode in="SourceGraphic"/>
            </feMerge>
        </filter>
    </defs>
    
    <!-- Dashboard Panel -->
    <rect x="50" y="50" width="1100" height="600" rx="20" ry="20" fill="#1e1e1e" stroke="#333" stroke-width="4"/>
    
    <!-- Bar Chart -->
    <g fill="none" stroke-width="4">
        <rect x="100" y="150" width="60" height="300" fill="url(#gradient1)" stroke="none" filter="url(#neonGlow)"/>
        <rect x="180" y="100" width="60" height="350" fill="url(#gradient1)" stroke="none" filter="url(#neonGlow)"/>
        <rect x="260" y="200" width="60" height="250" fill="url(#gradient1)" stroke="none" filter="url(#neonGlow)"/>
    </g>
    
    <!-- Line Chart -->
    <polyline points="400,450 500,350 600,400 700,300" stroke="url(#gradient1)" stroke-linecap="round" stroke-linejoin="round" filter="url(#neonGlow)"/>
    
    <!-- Pie Chart -->
    <circle cx="900" cy="200" r="80" fill="none" stroke="url(#glowGradient)" stroke-width="30" stroke-dasharray="60 40 80 20"/>
    <circle cx="900" cy="200" r="40" fill="none" stroke="#1e1e1e" stroke-width="30"/>
    
    <!-- Scatter Plot -->
    <g fill="none" stroke="url(#glowGradient)" stroke-width="3" filter="url(#neonGlow)">
        <circle cx="200" cy="550" r="8">
            <animate attributeName="r" from="8" to="12" dur="2s" repeatCount="indefinite"/>
        </circle>
        <circle cx="300" cy="450" r="8">
            <animate attributeName="r" from="8" to="12" dur="2s" repeatCount="indefinite" begin="0.5s"/>
        </circle>
        <circle cx="400" cy="600" r="8">
            <animate attributeName="r" from="8" to="12" dur="2s" repeatCount="indefinite" begin="1s"/>
        </circle>
        <circle cx="500" cy="500" r="8">
            <animate attributeName="r" from="8" to="12" dur="2s" repeatCount="indefinite" begin="1.5s"/>
        </circle>
    </g>
    
    <!-- Histogram -->
    <g fill="none" stroke="url(#gradient1)" stroke-width="4" filter="url(#neonGlow)">
        <rect x="100" y="700" width="40" height="200" stroke="none"/>
        <rect x="150" y="650" width="40" height="250" stroke="none"/>
        <rect x="200" y="600" width="40" height="300" stroke="none"/>
        <rect x="250" y="550" width="40" height="350" stroke="none"/>
    </g>
    
    <!-- Normal Distribution Curve -->
    <path d="M 600 750 Q 650 650 700 750 T 800 750" fill="none" stroke="url(#glowGradient)" stroke-width="4" filter="url(#neonGlow)"/>
    
    <!-- Correlation Matrix -->
    <g fill="none" stroke="url(#gradient1)" stroke-width="2" filter="url(#neonGlow)">
        <rect x="50" y="850" width="150" height="150" stroke="none"/>
        <rect x="200" y="850" width="150" height="150" stroke="none"/>
        <rect x="350" y="850" width="150" height="150" stroke="none"/>
        
        <line x1="50" y1="850" x2="200" y2="850"/>
        <line x1="50" y1="850" x2="50" y2="1000"/>
        <line x1="200" y1="850" x2="200" y2="1000"/>
        <line x1="350" y1="850" x2="350" y2="1000"/>
    </g>
    
    <!-- Data Table -->
    <g fill="none" stroke="#fff" stroke-width="2">
        <rect x="600" y="700" width="350" height="200" fill="#2e2e2e"/>
        <line x1="600" y1="750" x2="950" y2="750"/>
        <line x1="675" y1="700" x2="675" y2="900"/>
        <line x1="750" y1="700" x2="750" y2="900"/>
        <line x1="825" y1="700" x2="825" y2="900"/>
        <line x1="900" y1="700" x2="900" y2="900"/>
        
        <text x="620" y="730" fill="#fff" font-size="20">ID</text>
        <text x="685" y="730" fill="#fff" font-size="20">Name</text>
        <text x="755" y="730" fill="#fff" font-size="20">Score</text>
        <text x="830" y="730" fill="#fff" font-size="20">Date</text>
        <text x="905" y="730" fill="#fff" font-size="20">Status</text>
        
        <text x="620" y="780" fill="#fff" font-size="16">1</text>
        <text x="685" y="780" fill="#fff" font-size="16">Alice</text>
        <text x="755" y="780" fill="#fff" font-size="16">90%</text>
        <text x="830" y="780" fill="#fff" font-size="16">2024-08-15</text>
        <text x="905" y="780" fill="#fff" font-size="16">Complete</text>
    </g>
    
    <!-- Heatmap -->
    <defs>
        <linearGradient id="heatmapGradient" x1="0%" y1="0%" x2="100%" y2="100%">
            <stop offset="0%" style="stop-color:#00f5ff;stop-opacity:1" />
            <stop offset="100%" style="stop-color:#ff4f5f;stop-opacity:1" />
        </linearGradient>
    </defs>
    <rect x="50" y="450" width="200" height="200" fill="url(#heatmapGradient)" opacity="0.5"/>
    
    <!-- Forecast Arrows -->
    <g stroke="url(#gradient1)" stroke-width="4">
        <line x1="400" y1="600" x2="600" y2="400"/>
        <line x1="400" y1="600" x2="580" y2="420"/>
        <line x1="400" y1="600" x2="620" y2="420"/>
    </g>
    
    <!-- ROC Curve -->
    <path d="M 300 500 L 500 300 L 700 400 L 900 350 L 1000 500" fill="none" stroke="url(#glowGradient)" stroke-width="4" filter="url(#neonGlow)"/>
    <circle cx="300" cy="500" r="5" fill="#ff007c"/>
    <circle cx="500" cy="300" r="5" fill="#ff007c"/>
    <circle cx="700" cy="400" r="5" fill="#ff007c"/>
    <circle cx="900" cy="350" r="5" fill="#ff007c"/>
    <circle cx="1000" cy="500" r="5" fill="#ff007c"/>
    
    <!-- Animated Data Analysis Formulas -->
    <text x="100" y="900" font-family="Arial" font-size="24" fill="white" opacity="0.8">
        <tspan x="100" dy="0">Linear Regression:</tspan>
        <tspan x="100" dy="30" opacity="0">y = mx + b</tspan>
        <tspan x="100" dy="60">Mean (μ):</tspan>
        <tspan x="100" dy="30" opacity="0">μ = Σx / N</tspan>
        <tspan x="100" dy="60">Standard Deviation (σ):</tspan>
        <tspan x="100" dy="30" opacity="0">σ = √(Σ(x - μ)² / N)</tspan>
    </text>
    
    <animateTransform attributeName="transform" type="translate" from="0 0" to="0 -20" dur="5s" repeatCount="indefinite"/>
    <animate attributeName="opacity" values="0.8;1;0.8" dur="5s" repeatCount="indefinite"/>
</svg>